<svg xmlns="http://www.w3.org/2000/svg" viewBox="0 0 192 192" width="192" height="192">
  <!-- Background - Sunflower yellow -->
  <rect width="192" height="192" rx="32" fill="#FFB800"/>
  
  <!-- Stylized "D" for DishCourse -->
  <path 
    d="M60 40 L60 152 L100 152 C130 152 150 130 150 96 C150 62 130 40 100 40 L60 40 Z M78 56 L100 56 C118 56 132 72 132 96 C132 120 118 136 100 136 L78 136 L78 56 Z" 
    fill="#2C2C2C"
  />
  
  <!-- Small fork accent -->
  <path 
    d="M160 48 L160 72 M156 48 L156 64 M164 48 L164 64 M160 72 L160 88" 
    stroke="#2C2C2C" 
    stroke-width="3" 
    stroke-linecap="round"
    fill="none"
  />
</svg>

